<?xml version="1.0" encoding="UTF-8"?>
<!DOCTYPE svg PUBLIC "-//W3C//DTD SVG 1.1//EN" "http://www.w3.org/Graphics/SVG/1.1/DTD/svg11.dtd">
<svg xmlns="http://www.w3.org/2000/svg" version="1.1" width="1024px" height="1024px" style="shape-rendering:geometricPrecision; text-rendering:geometricPrecision; image-rendering:optimizeQuality; fill-rule:evenodd; clip-rule:evenodd" xmlns:xlink="http://www.w3.org/1999/xlink">
<g><path style="opacity:0.998" fill="red" d="M 332.5,67.5 C 336.438,70.694 337.438,74.694 335.5,79.5C 337.58,81.9928 339.414,84.6595 341,87.5C 342.09,91.7774 343.757,95.7774 346,99.5C 346.651,101.235 346.485,102.902 345.5,104.5C 347.197,105.364 348.363,106.697 349,108.5C 349.395,112.019 350.395,115.352 352,118.5C 352.891,121.853 351.725,124.187 348.5,125.5C 349.833,127.5 349.833,129.5 348.5,131.5C 349.85,132.95 351.516,133.617 353.5,133.5C 353.822,135.722 353.155,137.556 351.5,139C 352.653,140.883 354.319,141.716 356.5,141.5C 356.523,143.6 355.856,145.433 354.5,147C 356.784,149.637 356.784,152.137 354.5,154.5C 357.028,155.816 357.028,156.983 354.5,158C 356.98,160.421 357.647,163.254 356.5,166.5C 359.695,174.517 361.195,182.851 361,191.5C 361.849,194.521 362.683,197.521 363.5,200.5C 357.367,201.01 356.7,202.51 361.5,205C 362.701,205.903 363.535,207.069 364,208.5C 364.327,214.974 365.827,221.14 368.5,227C 366.917,233.831 368.25,239.997 372.5,245.5C 372.278,247.055 371.611,248.389 370.5,249.5C 373.143,253.45 374.643,257.783 375,262.5C 376.413,265.661 378.08,268.661 380,271.5C 379.893,275.489 381.059,278.989 383.5,282C 382.167,283.333 380.833,284.667 379.5,286C 380.949,287.117 382.616,287.784 384.5,288C 383.424,289.726 383.257,291.559 384,293.5C 385.733,295.723 387.233,298.056 388.5,300.5C 387.917,304.523 387.584,308.523 387.5,312.5C 388.437,315.54 389.771,318.374 391.5,321C 391.089,322.144 390.756,323.311 390.5,324.5C 394.078,330.589 395.745,337.255 395.5,344.5C 392.732,342.576 390.065,340.41 387.5,338C 386.167,337.333 384.833,337.333 383.5,338C 375.793,344.872 374.126,352.872 378.5,362C 377.131,366.041 377.631,369.874 380,373.5C 382.179,389.746 383.846,406.08 385,422.5C 389.588,431.089 390.921,440.089 389,449.5C 388.282,446.766 386.782,446.1 384.5,447.5C 385.648,450.289 386.981,452.956 388.5,455.5C 389.719,454.737 390.719,453.737 391.5,452.5C 392.492,456.783 392.826,461.116 392.5,465.5C 391.325,465.281 390.325,465.614 389.5,466.5C 392.885,469.37 395.219,472.87 396.5,477C 395.572,477.388 394.905,478.055 394.5,479C 396.976,488.995 398.143,499.161 398,509.5C 399.434,515.137 401.268,520.637 403.5,526C 402.67,527.465 402.504,528.965 403,530.5C 406.888,537.384 409.555,544.717 411,552.5C 412.563,553.725 413.73,555.225 414.5,557C 413.483,559.787 413.316,562.62 414,565.5C 416.333,569.5 418.667,573.5 421,577.5C 421.687,579.568 421.52,581.568 420.5,583.5C 422.071,585.882 422.904,588.549 423,591.5C 424,592.5 425,593.5 426,594.5C 427.912,600.692 429.579,607.025 431,613.5C 437.37,625.606 442.37,638.272 446,651.5C 448.587,656.261 450.587,661.261 452,666.5C 458.339,675.509 462.339,685.509 464,696.5C 467.833,704.833 471.667,713.167 475.5,721.5C 474.954,722.772 474.621,724.106 474.5,725.5C 475.363,728.233 476.529,730.899 478,733.5C 478.333,736.833 478.667,740.167 479,743.5C 483.076,753.315 487.409,762.982 492,772.5C 493.27,761.99 495.27,751.657 498,741.5C 499.745,740.044 501.578,738.711 503.5,737.5C 502.5,736.167 501.5,734.833 500.5,733.5C 501.859,731.308 503.692,729.641 506,728.5C 506.529,726.415 506.029,724.582 504.5,723C 507.373,718.758 509.873,714.258 512,709.5C 517.521,687.746 523.188,666.08 529,644.5C 529.398,641.768 530.898,639.935 533.5,639C 531.323,637.503 529.99,635.503 529.5,633C 530.5,630.667 531.5,628.333 532.5,626C 530.62,621.182 532.287,618.182 537.5,617C 536.422,616.326 535.755,615.326 535.5,614C 536.973,610.664 537.64,607.164 537.5,603.5C 539.977,603.949 541.977,603.283 543.5,601.5C 539.06,589.836 540.06,578.669 546.5,568C 545.576,561.699 546.242,555.533 548.5,549.5C 548.303,547.318 547.636,545.318 546.5,543.5C 546.608,542.558 546.941,541.725 547.5,541C 548.766,540.691 549.933,540.191 551,539.5C 551.026,535.892 551.859,532.558 553.5,529.5C 553.523,523.694 553.19,517.861 552.5,512C 553.032,509.98 554.365,509.147 556.5,509.5C 557.308,501.861 558.141,494.195 559,486.5C 560.977,483.688 563.144,481.022 565.5,478.5C 564.289,477.126 563.289,475.626 562.5,474C 563.716,471.07 565.049,468.237 566.5,465.5C 566.281,463.085 564.948,462.085 562.5,462.5C 561.485,459.311 561.485,456.144 562.5,453C 562.294,451.135 561.628,449.468 560.5,448C 561.586,445.248 563.086,442.748 565,440.5C 565.687,438.432 565.52,436.432 564.5,434.5C 564.808,433.692 565.308,433.025 566,432.5C 566.333,428.167 566.667,423.833 567,419.5C 570.635,417.627 571.135,415.294 568.5,412.5C 569.833,411.167 571.167,409.833 572.5,408.5C 572.013,407.554 571.68,406.554 571.5,405.5C 572.934,402.524 573.934,399.357 574.5,396C 572.971,394.418 572.471,392.585 573,390.5C 576.136,388.68 579.136,386.68 582,384.5C 582.8,381.133 583.966,377.966 585.5,375C 587.5,375 589.5,375 591.5,375C 593.752,371.832 595.752,368.499 597.5,365C 595.981,363.649 594.648,362.149 593.5,360.5C 596.52,355.801 600.02,351.467 604,347.5C 605.044,345.285 605.71,342.952 606,340.5C 608.087,339.206 610.254,338.039 612.5,337C 610.964,335.401 610.464,333.567 611,331.5C 617.27,330.279 622.104,326.946 625.5,321.5C 623.471,320.156 621.471,318.823 619.5,317.5C 621.265,316.539 623.265,316.205 625.5,316.5C 626.15,316.804 626.817,317.137 627.5,317.5C 629.091,314.405 631.257,311.738 634,309.5C 635.161,304.584 635.827,299.584 636,294.5C 638.037,290.619 639.87,286.619 641.5,282.5C 638.272,278.976 638.939,276.976 643.5,276.5C 642.3,273.167 642.3,269.833 643.5,266.5C 642.976,264.617 642.309,262.784 641.5,261C 642.804,257.386 642.471,253.886 640.5,250.5C 642.046,244.558 643.38,238.558 644.5,232.5C 644.023,231.522 643.357,230.689 642.5,230C 646.245,230.035 646.912,229.035 644.5,227C 646.227,225.611 647.561,223.944 648.5,222C 647.199,217.507 647.199,213.007 648.5,208.5C 647.935,206.595 646.935,204.929 645.5,203.5C 647.743,202.526 650.076,202.192 652.5,202.5C 652.419,195.57 655.086,189.903 660.5,185.5C 659.978,184.393 659.645,183.226 659.5,182C 660.783,175.466 662.283,168.966 664,162.5C 665.667,160.167 667.333,157.833 669,155.5C 668.195,150.951 667.861,146.284 668,141.5C 671.708,140.57 673.874,138.236 674.5,134.5C 670.531,132.596 670.697,130.93 675,129.5C 676.786,123.418 679.952,118.251 684.5,114C 682.859,108.112 684.692,103.612 690,100.5C 690.333,98.5 690.667,96.5 691,94.5C 692.011,93.6634 693.178,93.33 694.5,93.5C 694.33,92.1779 694.663,91.0113 695.5,90C 698.095,89.7744 700.595,89.2744 703,88.5C 703.333,86.5 703.667,84.5 704,82.5C 705.75,80.2657 707.25,77.9324 708.5,75.5C 710.03,74.9332 711.53,74.2666 713,73.5C 713.251,71.567 713.751,69.7337 714.5,68C 717.749,65.4574 721.249,63.2908 725,61.5C 725.17,59.2852 725.837,57.2852 727,55.5C 727.718,56.4506 728.551,56.6172 729.5,56C 730.5,53.6667 732.167,52 734.5,51C 739.147,50.3382 743.647,49.1715 748,47.5C 748.772,47.6448 749.439,47.9781 750,48.5C 750.49,47.2068 750.657,45.8734 750.5,44.5C 752.199,44.3398 753.866,44.5065 755.5,45C 756.542,46.918 757.708,48.7513 759,50.5C 760.046,48.9095 761.213,47.4095 762.5,46C 763.5,45.3333 764.5,45.3333 765.5,46C 767.548,47.6811 769.715,49.1811 772,50.5C 772.192,52.5767 772.692,54.5767 773.5,56.5C 774.167,55.5 774.833,54.5 775.5,53.5C 779.106,55.6028 782.273,58.2694 785,61.5C 786.545,60.1787 787.711,60.5121 788.5,62.5C 793.089,62.7899 797.255,64.1232 801,66.5C 802.908,64.0935 804.908,64.0935 807,66.5C 811.874,63.5294 816.374,64.0294 820.5,68C 830.06,69.9205 839.727,70.9205 849.5,71C 850.416,71.3742 851.25,71.8742 852,72.5C 858.627,71.1558 864.961,72.1558 871,75.5C 871.772,75.3552 872.439,75.0219 873,74.5C 873.941,76.0614 875.108,77.3947 876.5,78.5C 877.281,77.2634 878.281,76.2634 879.5,75.5C 881.288,77.7908 883.288,79.9575 885.5,82C 891.833,82.3333 898.167,82.6667 904.5,83C 906.963,85.6273 909.63,88.1273 912.5,90.5C 914.839,89.276 917.172,89.276 919.5,90.5C 924.616,96.0611 930.949,99.5611 938.5,101C 942.187,104.21 945.021,108.044 947,112.5C 951.054,116.554 955.054,120.554 959,124.5C 961.767,130.554 964.433,136.554 967,142.5C 968.558,144.359 970.391,145.859 972.5,147C 971.257,148.154 970.257,149.488 969.5,151C 971.744,152.422 973.41,154.256 974.5,156.5C 974.075,158.38 973.075,159.88 971.5,161C 972.756,162.845 973.756,164.845 974.5,167C 973.833,168.667 973.167,170.333 972.5,172C 976.075,177.771 976.409,183.771 973.5,190C 974.076,191.714 975.243,192.881 977,193.5C 976.596,195.64 977.096,197.807 978.5,200C 975.451,203.602 973.617,207.768 973,212.5C 969.56,216.012 967.893,220.012 968,224.5C 966.989,225.337 965.822,225.67 964.5,225.5C 966.59,229.815 965.59,233.149 961.5,235.5C 962.326,236.451 962.492,237.451 962,238.5C 954.203,245.771 948.703,254.438 945.5,264.5C 941.217,265.492 936.884,265.826 932.5,265.5C 932.58,268.781 931.913,271.781 930.5,274.5C 928.072,275.212 925.739,276.212 923.5,277.5C 922.949,279.413 922.782,281.413 923,283.5C 920.372,285.126 918.039,287.126 916,289.5C 907.965,302.233 900.965,315.567 895,329.5C 888.17,349.325 880.17,368.658 871,387.5C 870.498,398.331 865.498,406.331 856,411.5C 855.667,413.167 855.333,414.833 855,416.5C 853.108,417.13 851.441,418.13 850,419.5C 849.919,425.202 847.085,428.035 841.5,428C 841.102,431.66 839.102,433.494 835.5,433.5C 833.049,450.651 826.215,465.985 815,479.5C 812.941,482.949 811.441,486.616 810.5,490.5C 807.534,493.091 805.034,496.091 803,499.5C 802.405,500.899 802.572,502.232 803.5,503.5C 800.736,506.908 798.402,510.574 796.5,514.5C 790.528,516.204 787.862,513.871 788.5,507.5C 783.437,507.592 779.103,505.926 775.5,502.5C 775.736,500.618 775.736,498.784 775.5,497C 774.002,496.415 773.002,496.915 772.5,498.5C 770.865,499.815 769.199,499.815 767.5,498.5C 766.132,500.637 765.132,502.97 764.5,505.5C 761.317,509.476 757.483,512.809 753,515.5C 749.667,520.833 746.333,526.167 743,531.5C 742.289,533.367 742.789,534.867 744.5,536C 742.699,539.487 739.866,541.654 736,542.5C 735.283,547.555 732.616,551.222 728,553.5C 727.249,557.266 725.249,560.266 722,562.5C 719.148,572.193 716.314,581.859 713.5,591.5C 715.262,591.643 716.929,591.309 718.5,590.5C 719.321,587.553 719.821,584.553 720,581.5C 721.743,579.679 723.243,577.679 724.5,575.5C 726.548,576.083 728.381,576.083 730,575.5C 730.774,581.292 728.774,585.959 724,589.5C 720.867,598.368 718.2,607.368 716,616.5C 713.385,620.783 710.385,624.783 707,628.5C 707.443,635.608 705.11,641.608 700,646.5C 696.432,656.234 689.932,663.234 680.5,667.5C 670.574,685.779 663.741,705.112 660,725.5C 654.832,732.67 651.832,740.67 651,749.5C 647.778,752.355 644.944,752.021 642.5,748.5C 640.295,753.913 637.795,759.246 635,764.5C 634.088,768.795 633.421,773.128 633,777.5C 629.587,782.661 627.587,788.327 627,794.5C 621.831,805.67 618.498,817.336 617,829.5C 614.208,831.908 614.041,834.241 616.5,836.5C 615.872,839.09 614.705,841.423 613,843.5C 612.667,847.833 612.333,852.167 612,856.5C 607.667,867.167 603.333,877.833 599,888.5C 596.72,894.339 595.053,900.339 594,906.5C 592.129,911.081 589.629,915.248 586.5,919C 583.869,919.107 581.369,919.273 579,919.5C 578.43,924.922 577.43,930.255 576,935.5C 571.159,937.33 570.492,939.997 574,943.5C 574.667,945.167 574.667,946.833 574,948.5C 571.333,949.833 569.333,951.833 568,954.5C 565.925,958.271 564.258,962.271 563,966.5C 558.786,970.56 554.786,974.894 551,979.5C 549.097,981.441 548.264,983.774 548.5,986.5C 544.867,987.832 541.2,988.165 537.5,987.5C 530.561,988.551 523.561,989.217 516.5,989.5C 506.642,989.202 496.809,989.202 487,989.5C 481.312,988.352 475.645,987.352 470,986.5C 469.667,986.833 469.333,987.167 469,987.5C 467.052,986.891 465.218,986.224 463.5,985.5C 461.044,983.79 457.044,983.123 451.5,983.5C 450.5,983.5 449.5,983.5 448.5,983.5C 448.5,982.5 448.5,981.5 448.5,980.5C 445.223,980.784 442.057,980.451 439,979.5C 435.415,974.695 432.082,969.695 429,964.5C 423.545,963.714 419.878,960.714 418,955.5C 414.133,953.64 411.8,950.64 411,946.5C 409.333,945.167 407.667,943.833 406,942.5C 405.667,940.5 405.333,938.5 405,936.5C 403.667,935.833 402.333,935.167 401,934.5C 399.392,931.228 397.392,928.228 395,925.5C 394.014,919.862 391.681,914.862 388,910.5C 388,908.5 388,906.5 388,904.5C 383.887,898.609 380.554,892.276 378,885.5C 372.909,880.983 370.242,875.317 370,868.5C 366.986,866.025 365.986,862.692 367,858.5C 364.352,856.18 362.019,853.514 360,850.5C 359.503,847.854 359.336,845.187 359.5,842.5C 358.167,842.5 356.833,842.5 355.5,842.5C 355.664,839.813 355.497,837.146 355,834.5C 350,825.5 345,816.5 340,807.5C 339.667,805.167 339.333,802.833 339,800.5C 335.166,795.503 331.833,790.17 329,784.5C 328.405,783.101 328.572,781.768 329.5,780.5C 328.176,779.065 326.51,778.065 324.5,777.5C 325.428,776.232 325.595,774.899 325,773.5C 321.286,765.07 317.286,756.737 313,748.5C 310.185,738.741 306.185,729.408 301,720.5C 299.084,713.814 296.417,707.481 293,701.5C 292.112,693.262 289.112,685.929 284,679.5C 282.927,675.916 282.26,672.25 282,668.5C 279,663.833 276,659.167 273,654.5C 271.616,649.214 269.616,644.214 267,639.5C 266.28,637.888 266.446,636.388 267.5,635C 265.744,634.798 264.078,634.298 262.5,633.5C 263.596,631.487 263.263,629.654 261.5,628C 262.765,622.894 261.598,618.394 258,614.5C 252.473,594.942 245.473,575.609 237,556.5C 235.237,551.959 232.737,547.959 229.5,544.5C 232.131,542.008 231.965,539.674 229,537.5C 228.257,535.559 228.424,533.726 229.5,532C 228.692,531.692 228.025,531.192 227.5,530.5C 229.256,528.809 229.756,526.809 229,524.5C 225.879,518.551 222.879,512.551 220,506.5C 218.113,501.365 216.78,496.031 216,490.5C 214,487.167 212,483.833 210,480.5C 211.267,475.41 209.933,471.077 206,467.5C 206.107,464.443 204.94,462.109 202.5,460.5C 201.131,453.217 198.131,446.717 193.5,441C 192.712,438.551 192.712,435.884 193.5,433C 191.085,429.242 189.918,425.075 190,420.5C 188.157,416.641 185.49,413.307 182,410.5C 181.393,407.798 181.56,405.132 182.5,402.5C 179.698,399.624 177.532,396.29 176,392.5C 175.666,390.153 175.833,387.819 176.5,385.5C 175.448,385.649 174.448,385.483 173.5,385C 172.898,382.964 171.898,381.13 170.5,379.5C 170.833,378.833 171.167,378.167 171.5,377.5C 170.756,374.557 170.256,371.557 170,368.5C 167.333,363.167 164.667,357.833 162,352.5C 161.333,350.833 161.333,349.167 162,347.5C 163.685,345.983 165.185,344.316 166.5,342.5C 163.479,339.314 160.646,335.98 158,332.5C 157.651,327.457 156.485,322.624 154.5,318C 155.252,315.846 155.419,313.68 155,311.5C 149.955,307.743 147.289,302.743 147,296.5C 141.856,293.472 141.356,289.972 145.5,286C 142.808,280.785 139.975,275.618 137,270.5C 137.291,265.856 137.291,261.189 137,256.5C 134.14,254.061 131.473,251.395 129,248.5C 128.667,243.833 128.333,239.167 128,234.5C 126.884,231.244 125.051,228.578 122.5,226.5C 121.518,222.873 121.351,219.207 122,215.5C 115.202,211.944 110.202,206.611 107,199.5C 104.622,197.291 102.455,194.958 100.5,192.5C 101.96,189.971 102.46,187.304 102,184.5C 99.0855,181.517 96.0855,178.517 93,175.5C 90.5762,170.806 89.2428,165.806 89,160.5C 87.3922,157.228 85.3922,154.228 83,151.5C 82.218,148.743 82.718,146.243 84.5,144C 82.8659,143.506 81.1992,143.34 79.5,143.5C 79.3573,141.738 79.6906,140.071 80.5,138.5C 77.3536,135.536 75.8536,131.87 76,127.5C 75.0754,126.953 74.2421,126.287 73.5,125.5C 74.8064,124.088 75.6397,122.421 76,120.5C 77.0674,119.809 78.2341,119.309 79.5,119C 78.3759,118.161 77.7092,116.994 77.5,115.5C 78.0819,111.845 78.5819,108.178 79,104.5C 80.0736,103.382 81.2402,102.382 82.5,101.5C 81.8333,100.5 81.1667,99.5 80.5,98.5C 82.8507,97.9882 84.8507,96.9882 86.5,95.5C 84.2046,91.569 84.2046,87.7357 86.5,84C 85.9208,80.8433 84.9208,77.8433 83.5,75C 83.6257,71.5649 85.1257,69.0649 88,67.5C 88.427,63.4729 90.5936,60.9729 94.5,60C 93.4464,58.6124 93.2797,57.1124 94,55.5C 98.0718,51.5502 102.238,47.7169 106.5,44C 114.38,44.578 122.38,43.7446 130.5,41.5C 137.456,44.7605 144.456,44.7605 151.5,41.5C 153.28,42.9148 154.946,42.7481 156.5,41C 162.167,40.6667 167.833,40.3333 173.5,40C 177.231,38.3153 180.898,36.4819 184.5,34.5C 185.548,35.3829 186.715,36.0496 188,36.5C 190.807,36.3908 193.64,36.0574 196.5,35.5C 197.833,36.1667 199.167,36.8333 200.5,37.5C 202.027,35.8067 203.36,33.9734 204.5,32C 208.725,29.6399 212.391,30.3066 215.5,34C 217.035,34.4962 218.535,34.3295 220,33.5C 221.261,33.7591 222.261,34.4258 223,35.5C 223.519,34.4844 224.353,33.8178 225.5,33.5C 234.384,34.5844 243.384,34.5844 252.5,33.5C 257.371,33.7829 261.871,35.1162 266,37.5C 267.982,37.0097 269.649,36.0097 271,34.5C 273.455,35.7426 274.622,37.7426 274.5,40.5C 280.989,39.8665 286.656,41.5332 291.5,45.5C 294.675,46.7538 297.841,46.7538 301,45.5C 303.663,46.9114 306.496,47.9114 309.5,48.5C 309.899,44.7741 311.566,41.7741 314.5,39.5C 315.485,41.772 316.319,44.1053 317,46.5C 322.149,52.1563 326.316,58.4897 329.5,65.5C 330.357,66.4252 331.357,67.0919 332.5,67.5 Z"/></g>
<g><path style="opacity:0.999" fill="black" d="M 708.5,75.5 C 707.25,77.9324 705.75,80.2657 704,82.5C 703.667,84.5 703.333,86.5 703,88.5C 700.595,89.2744 698.095,89.7744 695.5,90C 694.663,91.0113 694.33,92.1779 694.5,93.5C 693.178,93.33 692.011,93.6634 691,94.5C 690.667,96.5 690.333,98.5 690,100.5C 684.692,103.612 682.859,108.112 684.5,114C 679.952,118.251 676.786,123.418 675,129.5C 670.697,130.93 670.531,132.596 674.5,134.5C 673.874,138.236 671.708,140.57 668,141.5C 667.861,146.284 668.195,150.951 669,155.5C 667.333,157.833 665.667,160.167 664,162.5C 662.283,168.966 660.783,175.466 659.5,182C 659.645,183.226 659.978,184.393 660.5,185.5C 655.086,189.903 652.419,195.57 652.5,202.5C 650.076,202.192 647.743,202.526 645.5,203.5C 646.935,204.929 647.935,206.595 648.5,208.5C 647.199,213.007 647.199,217.507 648.5,222C 647.561,223.944 646.227,225.611 644.5,227C 646.912,229.035 646.245,230.035 642.5,230C 643.357,230.689 644.023,231.522 644.5,232.5C 643.38,238.558 642.046,244.558 640.5,250.5C 642.471,253.886 642.804,257.386 641.5,261C 642.309,262.784 642.976,264.617 643.5,266.5C 642.3,269.833 642.3,273.167 643.5,276.5C 638.939,276.976 638.272,278.976 641.5,282.5C 639.87,286.619 638.037,290.619 636,294.5C 635.827,299.584 635.161,304.584 634,309.5C 631.257,311.738 629.091,314.405 627.5,317.5C 626.817,317.137 626.15,316.804 625.5,316.5C 623.034,315.366 620.367,315.199 617.5,316C 618.044,316.717 618.711,317.217 619.5,317.5C 621.471,318.823 623.471,320.156 625.5,321.5C 622.104,326.946 617.27,330.279 611,331.5C 610.464,333.567 610.964,335.401 612.5,337C 610.254,338.039 608.087,339.206 606,340.5C 605.71,342.952 605.044,345.285 604,347.5C 600.02,351.467 596.52,355.801 593.5,360.5C 594.648,362.149 595.981,363.649 597.5,365C 595.752,368.499 593.752,371.832 591.5,375C 589.5,375 587.5,375 585.5,375C 583.966,377.966 582.8,381.133 582,384.5C 579.136,386.68 576.136,388.68 573,390.5C 572.471,392.585 572.971,394.418 574.5,396C 573.934,399.357 572.934,402.524 571.5,405.5C 571.68,406.554 572.013,407.554 572.5,408.5C 571.167,409.833 569.833,411.167 568.5,412.5C 571.135,415.294 570.635,417.627 567,419.5C 566.667,423.833 566.333,428.167 566,432.5C 565.308,433.025 564.808,433.692 564.5,434.5C 565.52,436.432 565.687,438.432 565,440.5C 563.086,442.748 561.586,445.248 560.5,448C 561.628,449.468 562.294,451.135 562.5,453C 561.485,456.144 561.485,459.311 562.5,462.5C 564.948,462.085 566.281,463.085 566.5,465.5C 565.049,468.237 563.716,471.07 562.5,474C 563.289,475.626 564.289,477.126 565.5,478.5C 563.144,481.022 560.977,483.688 559,486.5C 558.141,494.195 557.308,501.861 556.5,509.5C 554.365,509.147 553.032,509.98 552.5,512C 553.19,517.861 553.523,523.694 553.5,529.5C 551.859,532.558 551.026,535.892 551,539.5C 549.933,540.191 548.766,540.691 547.5,541C 546.941,541.725 546.608,542.558 546.5,543.5C 547.636,545.318 548.303,547.318 548.5,549.5C 546.242,555.533 545.576,561.699 546.5,568C 540.06,578.669 539.06,589.836 543.5,601.5C 541.977,603.283 539.977,603.949 537.5,603.5C 537.64,607.164 536.973,610.664 535.5,614C 535.755,615.326 536.422,616.326 537.5,617C 532.287,618.182 530.62,621.182 532.5,626C 531.5,628.333 530.5,630.667 529.5,633C 529.99,635.503 531.323,637.503 533.5,639C 530.898,639.935 529.398,641.768 529,644.5C 523.188,666.08 517.521,687.746 512,709.5C 509.873,714.258 507.373,718.758 504.5,723C 506.029,724.582 506.529,726.415 506,728.5C 503.692,729.641 501.859,731.308 500.5,733.5C 501.5,734.833 502.5,736.167 503.5,737.5C 501.578,738.711 499.745,740.044 498,741.5C 495.27,751.657 493.27,761.99 492,772.5C 487.409,762.982 483.076,753.315 479,743.5C 478.667,740.167 478.333,736.833 478,733.5C 476.529,730.899 475.363,728.233 474.5,725.5C 474.621,724.106 474.954,722.772 475.5,721.5C 471.667,713.167 467.833,704.833 464,696.5C 462.339,685.509 458.339,675.509 452,666.5C 450.587,661.261 448.587,656.261 446,651.5C 442.37,638.272 437.37,625.606 431,613.5C 429.579,607.025 427.912,600.692 426,594.5C 425,593.5 424,592.5 423,591.5C 422.904,588.549 422.071,585.882 420.5,583.5C 421.52,581.568 421.687,579.568 421,577.5C 418.667,573.5 416.333,569.5 414,565.5C 413.316,562.62 413.483,559.787 414.5,557C 413.73,555.225 412.563,553.725 411,552.5C 409.555,544.717 406.888,537.384 403,530.5C 402.504,528.965 402.67,527.465 403.5,526C 401.268,520.637 399.434,515.137 398,509.5C 398.143,499.161 396.976,488.995 394.5,479C 394.905,478.055 395.572,477.388 396.5,477C 395.219,472.87 392.885,469.37 389.5,466.5C 390.325,465.614 391.325,465.281 392.5,465.5C 392.826,461.116 392.492,456.783 391.5,452.5C 390.719,453.737 389.719,454.737 388.5,455.5C 386.981,452.956 385.648,450.289 384.5,447.5C 386.782,446.1 388.282,446.766 389,449.5C 390.921,440.089 389.588,431.089 385,422.5C 383.846,406.08 382.179,389.746 380,373.5C 377.631,369.874 377.131,366.041 378.5,362C 374.126,352.872 375.793,344.872 383.5,338C 384.833,337.333 386.167,337.333 387.5,338C 390.065,340.41 392.732,342.576 395.5,344.5C 395.745,337.255 394.078,330.589 390.5,324.5C 390.756,323.311 391.089,322.144 391.5,321C 389.771,318.374 388.437,315.54 387.5,312.5C 387.584,308.523 387.917,304.523 388.5,300.5C 387.233,298.056 385.733,295.723 384,293.5C 383.257,291.559 383.424,289.726 384.5,288C 382.616,287.784 380.949,287.117 379.5,286C 380.833,284.667 382.167,283.333 383.5,282C 381.059,278.989 379.893,275.489 380,271.5C 378.08,268.661 376.413,265.661 375,262.5C 374.643,257.783 373.143,253.45 370.5,249.5C 371.611,248.389 372.278,247.055 372.5,245.5C 368.25,239.997 366.917,233.831 368.5,227C 365.827,221.14 364.327,214.974 364,208.5C 363.535,207.069 362.701,205.903 361.5,205C 356.7,202.51 357.367,201.01 363.5,200.5C 362.683,197.521 361.849,194.521 361,191.5C 361.195,182.851 359.695,174.517 356.5,166.5C 357.647,163.254 356.98,160.421 354.5,158C 357.028,156.983 357.028,155.816 354.5,154.5C 356.784,152.137 356.784,149.637 354.5,147C 355.856,145.433 356.523,143.6 356.5,141.5C 354.319,141.716 352.653,140.883 351.5,139C 353.155,137.556 353.822,135.722 353.5,133.5C 351.516,133.617 349.85,132.95 348.5,131.5C 349.833,129.5 349.833,127.5 348.5,125.5C 351.725,124.187 352.891,121.853 352,118.5C 350.395,115.352 349.395,112.019 349,108.5C 348.363,106.697 347.197,105.364 345.5,104.5C 346.485,102.902 346.651,101.235 346,99.5C 343.757,95.7774 342.09,91.7774 341,87.5C 339.414,84.6595 337.58,81.9928 335.5,79.5C 337.438,74.694 336.438,70.694 332.5,67.5C 425.979,31.8607 521.645,24.6941 619.5,46C 650.112,53.1485 679.779,62.9819 708.5,75.5 Z"/></g>
<g><path style="opacity:0.995" fill="#0a0a0a" d="M 122.5,226.5 C 125.051,228.578 126.884,231.244 128,234.5C 128.333,239.167 128.667,243.833 129,248.5C 131.473,251.395 134.14,254.061 137,256.5C 137.291,261.189 137.291,265.856 137,270.5C 139.975,275.618 142.808,280.785 145.5,286C 141.356,289.972 141.856,293.472 147,296.5C 147.289,302.743 149.955,307.743 155,311.5C 155.419,313.68 155.252,315.846 154.5,318C 156.485,322.624 157.651,327.457 158,332.5C 160.646,335.98 163.479,339.314 166.5,342.5C 165.185,344.316 163.685,345.983 162,347.5C 161.333,349.167 161.333,350.833 162,352.5C 164.667,357.833 167.333,363.167 170,368.5C 170.256,371.557 170.756,374.557 171.5,377.5C 171.167,378.167 170.833,378.833 170.5,379.5C 171.898,381.13 172.898,382.964 173.5,385C 174.448,385.483 175.448,385.649 176.5,385.5C 175.833,387.819 175.666,390.153 176,392.5C 177.532,396.29 179.698,399.624 182.5,402.5C 181.56,405.132 181.393,407.798 182,410.5C 185.49,413.307 188.157,416.641 190,420.5C 189.918,425.075 191.085,429.242 193.5,433C 192.712,435.884 192.712,438.551 193.5,441C 198.131,446.717 201.131,453.217 202.5,460.5C 204.94,462.109 206.107,464.443 206,467.5C 209.933,471.077 211.267,475.41 210,480.5C 212,483.833 214,487.167 216,490.5C 216.78,496.031 218.113,501.365 220,506.5C 222.879,512.551 225.879,518.551 229,524.5C 229.756,526.809 229.256,528.809 227.5,530.5C 228.025,531.192 228.692,531.692 229.5,532C 228.424,533.726 228.257,535.559 229,537.5C 231.965,539.674 232.131,542.008 229.5,544.5C 232.737,547.959 235.237,551.959 237,556.5C 245.473,575.609 252.473,594.942 258,614.5C 261.598,618.394 262.765,622.894 261.5,628C 263.263,629.654 263.596,631.487 262.5,633.5C 264.078,634.298 265.744,634.798 267.5,635C 266.446,636.388 266.28,637.888 267,639.5C 269.616,644.214 271.616,649.214 273,654.5C 276,659.167 279,663.833 282,668.5C 282.26,672.25 282.927,675.916 284,679.5C 289.112,685.929 292.112,693.262 293,701.5C 296.417,707.481 299.084,713.814 301,720.5C 306.185,729.408 310.185,738.741 313,748.5C 317.286,756.737 321.286,765.07 325,773.5C 325.595,774.899 325.428,776.232 324.5,777.5C 326.51,778.065 328.176,779.065 329.5,780.5C 328.572,781.768 328.405,783.101 329,784.5C 331.833,790.17 335.166,795.503 339,800.5C 339.333,802.833 339.667,805.167 340,807.5C 345,816.5 350,825.5 355,834.5C 355.497,837.146 355.664,839.813 355.5,842.5C 356.833,842.5 358.167,842.5 359.5,842.5C 359.336,845.187 359.503,847.854 360,850.5C 362.019,853.514 364.352,856.18 367,858.5C 365.986,862.692 366.986,866.025 370,868.5C 370.242,875.317 372.909,880.983 378,885.5C 380.554,892.276 383.887,898.609 388,904.5C 388,906.5 388,908.5 388,910.5C 391.681,914.862 394.014,919.862 395,925.5C 397.392,928.228 399.392,931.228 401,934.5C 402.333,935.167 403.667,935.833 405,936.5C 405.333,938.5 405.667,940.5 406,942.5C 407.667,943.833 409.333,945.167 411,946.5C 411.8,950.64 414.133,953.64 418,955.5C 419.878,960.714 423.545,963.714 429,964.5C 432.082,969.695 435.415,974.695 439,979.5C 442.057,980.451 445.223,980.784 448.5,980.5C 448.5,981.5 448.5,982.5 448.5,983.5C 449.5,983.5 450.5,983.5 451.5,983.5C 451.5,983.833 451.5,984.167 451.5,984.5C 321.614,966.663 215.114,907.663 132,807.5C 39.8091,687.592 9.14247,553.259 40,404.5C 55.4365,339.309 82.9365,279.976 122.5,226.5 Z"/></g>
<g><path style="opacity:0.996" fill="#0a0a0a" d="M 930.5,274.5 C 993.936,387.726 1009.77,507.393 978,633.5C 940.188,763.941 862.354,862.441 744.5,929C 683.193,961.827 617.86,980.994 548.5,986.5C 548.264,983.774 549.097,981.441 551,979.5C 554.786,974.894 558.786,970.56 563,966.5C 564.258,962.271 565.925,958.271 568,954.5C 569.333,951.833 571.333,949.833 574,948.5C 574.667,946.833 574.667,945.167 574,943.5C 570.492,939.997 571.159,937.33 576,935.5C 577.43,930.255 578.43,924.922 579,919.5C 581.369,919.273 583.869,919.107 586.5,919C 589.629,915.248 592.129,911.081 594,906.5C 595.053,900.339 596.72,894.339 599,888.5C 603.333,877.833 607.667,867.167 612,856.5C 612.333,852.167 612.667,847.833 613,843.5C 614.705,841.423 615.872,839.09 616.5,836.5C 614.041,834.241 614.208,831.908 617,829.5C 618.498,817.336 621.831,805.67 627,794.5C 627.587,788.327 629.587,782.661 633,777.5C 633.421,773.128 634.088,768.795 635,764.5C 637.795,759.246 640.295,753.913 642.5,748.5C 644.944,752.021 647.778,752.355 651,749.5C 651.832,740.67 654.832,732.67 660,725.5C 663.741,705.112 670.574,685.779 680.5,667.5C 689.932,663.234 696.432,656.234 700,646.5C 705.11,641.608 707.443,635.608 707,628.5C 710.385,624.783 713.385,620.783 716,616.5C 718.2,607.368 720.867,598.368 724,589.5C 728.774,585.959 730.774,581.292 730,575.5C 728.381,576.083 726.548,576.083 724.5,575.5C 723.243,577.679 721.743,579.679 720,581.5C 719.821,584.553 719.321,587.553 718.5,590.5C 716.929,591.309 715.262,591.643 713.5,591.5C 716.314,581.859 719.148,572.193 722,562.5C 725.249,560.266 727.249,557.266 728,553.5C 732.616,551.222 735.283,547.555 736,542.5C 739.866,541.654 742.699,539.487 744.5,536C 742.789,534.867 742.289,533.367 743,531.5C 746.333,526.167 749.667,520.833 753,515.5C 757.483,512.809 761.317,509.476 764.5,505.5C 765.132,502.97 766.132,500.637 767.5,498.5C 769.199,499.815 770.865,499.815 772.5,498.5C 773.512,499.872 774.512,501.205 775.5,502.5C 779.103,505.926 783.437,507.592 788.5,507.5C 787.862,513.871 790.528,516.204 796.5,514.5C 798.402,510.574 800.736,506.908 803.5,503.5C 802.572,502.232 802.405,500.899 803,499.5C 805.034,496.091 807.534,493.091 810.5,490.5C 811.441,486.616 812.941,482.949 815,479.5C 826.215,465.985 833.049,450.651 835.5,433.5C 839.102,433.494 841.102,431.66 841.5,428C 847.085,428.035 849.919,425.202 850,419.5C 851.441,418.13 853.108,417.13 855,416.5C 855.333,414.833 855.667,413.167 856,411.5C 865.498,406.331 870.498,398.331 871,387.5C 880.17,368.658 888.17,349.325 895,329.5C 900.965,315.567 907.965,302.233 916,289.5C 918.039,287.126 920.372,285.126 923,283.5C 922.782,281.413 922.949,279.413 923.5,277.5C 925.739,276.212 928.072,275.212 930.5,274.5 Z"/></g>
<g><path style="opacity:1" fill="#375e0f" d="M 625.5,316.5 C 623.265,316.205 621.265,316.539 619.5,317.5C 618.711,317.217 618.044,316.717 617.5,316C 620.367,315.199 623.034,315.366 625.5,316.5 Z"/></g>
<g><path style="opacity:1" fill="#1d2a10" d="M 360.5,459.5 C 362.411,459.574 363.578,460.574 364,462.5C 365.194,470.409 364.194,471.076 361,464.5C 360.506,462.866 360.34,461.199 360.5,459.5 Z"/></g>
<g><path style="opacity:1" fill="#19210f" d="M 388.5,458.5 C 390.852,459.543 391.019,460.876 389,462.5C 387.232,461.318 387.065,459.985 388.5,458.5 Z"/></g>
<g><path style="opacity:1" fill="#151b0d" d="M 364.5,473.5 C 369.363,473.892 370.53,476.226 368,480.5C 366.667,481.833 365.333,481.833 364,480.5C 363.297,478.071 363.463,475.738 364.5,473.5 Z"/></g>
<g><path style="opacity:1" fill="#2d4912" d="M 365.5,487.5 C 368.548,487.494 369.048,488.494 367,490.5C 365.961,489.756 365.461,488.756 365.5,487.5 Z"/></g>
<g><path style="opacity:1" fill="#3c6a0f" d="M 777.5,488.5 C 779.337,488.639 779.67,489.306 778.5,490.5C 777.702,490.043 777.369,489.376 777.5,488.5 Z"/></g>
<g><path style="opacity:1" fill="#0e110b" d="M 471.5,779.5 C 471.01,776.345 470.344,773.345 469.5,770.5C 466.112,754.113 460.612,739.113 453,725.5C 451.892,721.914 451.392,718.247 451.5,714.5C 452.613,713.054 452.78,711.387 452,709.5C 451.764,711.119 450.931,712.119 449.5,712.5C 447.998,710.825 446.665,708.992 445.5,707C 444.167,706.333 442.833,706.333 441.5,707C 444.135,712.906 445.968,719.073 447,725.5C 448.743,727.321 450.243,729.321 451.5,731.5C 449.36,734.298 447.36,737.131 445.5,740C 446.828,744.489 448.828,748.656 451.5,752.5C 450.469,753.7 449.635,755.034 449,756.5C 448.25,755.874 447.416,755.374 446.5,755C 441.954,741.991 437.787,728.824 434,715.5C 432.194,710.554 429.861,705.888 427,701.5C 426.747,698.8 426.747,696.133 427,693.5C 421.975,690.058 420.309,685.391 422,679.5C 416.215,672.144 413.215,663.811 413,654.5C 421.168,667.187 426.668,680.854 429.5,695.5C 430.661,697.447 432.328,698.28 434.5,698C 433.074,695.955 432.074,693.788 431.5,691.5C 430.889,685.776 429.889,680.109 428.5,674.5C 428.799,672.185 429.632,672.185 431,674.5C 432.866,666.752 431.032,660.085 425.5,654.5C 424.935,652.048 424.268,649.715 423.5,647.5C 421.279,638.311 419.446,628.978 418,619.5C 414.15,615.797 413.65,616.464 416.5,621.5C 415.937,622.939 415.603,624.439 415.5,626C 416.102,629.352 417.102,632.519 418.5,635.5C 416.019,635.677 414.186,634.677 413,632.5C 408.182,623.715 405.182,614.381 404,604.5C 402.833,602.833 401.667,601.167 400.5,599.5C 401.766,598.276 402.933,596.943 404,595.5C 405.046,597.09 406.213,598.59 407.5,600C 408.332,600.688 408.998,600.521 409.5,599.5C 408.319,595.816 405.819,593.816 402,593.5C 401.333,592.167 400.667,590.833 400,589.5C 399.667,583.833 399.333,578.167 399,572.5C 396.166,562.321 392.832,552.321 389,542.5C 388.586,542.043 388.086,541.709 387.5,541.5C 386.348,544.106 386.182,546.773 387,549.5C 388.399,552.629 390.065,555.629 392,558.5C 392.428,563.409 393.428,568.076 395,572.5C 394.439,573.022 393.772,573.355 393,573.5C 391.674,572.201 390.34,570.868 389,569.5C 388.376,567.536 388.876,565.869 390.5,564.5C 387.056,559.122 384.889,559.455 384,565.5C 381.908,562.319 379.575,559.319 377,556.5C 376.352,550.221 374.685,544.221 372,538.5C 371.303,534.465 371.47,530.465 372.5,526.5C 370.679,516.324 369.012,506.158 367.5,496C 368.086,491.817 370.253,490.65 374,492.5C 374.581,496.19 374.415,499.856 373.5,503.5C 375.168,508.809 375.501,514.142 374.5,519.5C 375.333,521.167 376.167,522.833 377,524.5C 378.011,523.663 379.178,523.33 380.5,523.5C 382.703,528.586 383.703,533.92 383.5,539.5C 384.833,539.5 386.167,539.5 387.5,539.5C 387.987,532.792 385.821,527.125 381,522.5C 380.374,520.287 380.541,518.12 381.5,516C 379.799,514.14 378.799,511.973 378.5,509.5C 379.978,509.238 381.311,509.571 382.5,510.5C 386.313,517.722 388.813,525.389 390,533.5C 399.408,551.256 406.075,569.922 410,589.5C 412.917,593.666 415.584,597.999 418,602.5C 419.553,611.043 421.886,619.376 425,627.5C 432.294,646.082 440.627,664.082 450,681.5C 450.333,684.167 450.667,686.833 451,689.5C 456.031,696.225 460.031,703.558 463,711.5C 463.333,713.833 463.667,716.167 464,718.5C 470.438,733.526 476.938,748.359 483.5,763C 481.964,764.599 481.464,766.433 482,768.5C 487.853,770.028 489.853,773.694 488,779.5C 487.625,782 486.792,784.333 485.5,786.5C 486.611,787.611 487.278,788.945 487.5,790.5C 486.114,794.053 484.114,797.22 481.5,800C 483.825,803.094 483.992,806.261 482,809.5C 480,806.833 478,804.167 476,801.5C 476,797.5 476,793.5 476,789.5C 473.551,788.123 473.051,786.289 474.5,784C 473.685,782.357 472.685,780.857 471.5,779.5 Z"/></g>
<g><path style="opacity:1" fill="#305012" d="M 775.5,502.5 C 774.512,501.205 773.512,499.872 772.5,498.5C 773.002,496.915 774.002,496.415 775.5,497C 775.736,498.784 775.736,500.618 775.5,502.5 Z"/></g>
<g><path style="opacity:1" fill="#345b0f" d="M 356.5,550.5 C 355.833,552.167 355.167,553.833 354.5,555.5C 354.337,553.143 354.503,550.81 355,548.5C 355.717,549.044 356.217,549.711 356.5,550.5 Z"/></g>
<g><path style="opacity:1" fill="#11150c" d="M 356.5,550.5 C 361.287,558.79 363.453,567.79 363,577.5C 361.844,578.993 361.01,578.826 360.5,577C 358.908,571.881 356.741,567.048 354,562.5C 353.444,560.115 353.61,557.782 354.5,555.5C 355.167,553.833 355.833,552.167 356.5,550.5 Z"/></g>
<g><path style="opacity:1" fill="#6dc805" d="M 730.5,570.5 C 731.776,571.386 731.776,572.386 730.5,573.5C 729.438,572.575 729.438,571.575 730.5,570.5 Z"/></g>
<g><path style="opacity:1" fill="#171d0e" d="M 385.5,572.5 C 388.051,574.578 389.884,577.244 391,580.5C 392.017,594.552 395.684,607.886 402,620.5C 402.667,623.167 402.667,625.833 402,628.5C 397.475,617.045 393.475,605.379 390,593.5C 388.544,586.462 387.044,579.462 385.5,572.5 Z"/></g>
<g><path style="opacity:1" fill="#19220f" d="M 361.5,580.5 C 365.254,581.828 366.421,584.494 365,588.5C 362.466,586.431 361.299,583.765 361.5,580.5 Z"/></g>
<g><path style="opacity:1" fill="#11140c" d="M 711.5,598.5 C 712.693,598.97 713.36,599.97 713.5,601.5C 712.381,605.139 710.214,608.139 707,610.5C 706.667,612.833 706.333,615.167 706,617.5C 701.612,623.609 698.279,630.276 696,637.5C 695,638.5 694,639.5 693,640.5C 693.009,636.446 693.676,632.446 695,628.5C 696.849,625.462 698.682,622.462 700.5,619.5C 698.784,617.085 698.284,614.418 699,611.5C 702.697,606.638 706.864,602.304 711.5,598.5 Z"/></g>
<g><path style="opacity:1" fill="#12150c" d="M 390.5,636.5 C 392.017,636.511 393.184,637.177 394,638.5C 399.082,647.319 402.415,656.653 404,666.5C 395.966,658.098 391.466,648.098 390.5,636.5 Z"/></g>
<g><path style="opacity:1" fill="#12160c" d="M 404.5,632.5 C 407.309,636.041 409.476,640.041 411,644.5C 411.303,651.869 409.97,652.203 407,645.5C 406.667,642.5 406.333,639.5 406,636.5C 403.628,635.683 403.128,634.35 404.5,632.5 Z"/></g>
<g><path style="opacity:1" fill="#12160c" d="M 653.5,701.5 C 654.765,702.514 655.431,704.014 655.5,706C 652.542,717.21 649.375,728.376 646,739.5C 645.333,740.167 644.667,740.833 644,741.5C 644.164,734.868 644.497,728.201 645,721.5C 649.761,715.645 652.594,708.979 653.5,701.5 Z"/></g>
<g><path style="opacity:1" fill="#48800f" d="M 451.5,714.5 C 450.5,714.167 449.833,713.5 449.5,712.5C 450.931,712.119 451.764,711.119 452,709.5C 452.78,711.387 452.613,713.054 451.5,714.5 Z"/></g>
<g><path style="opacity:1" fill="#12160c" d="M 451.5,737.5 C 456.463,739.931 457.63,743.597 455,748.5C 452.982,746.65 451.149,744.65 449.5,742.5C 450.456,740.925 451.123,739.258 451.5,737.5 Z"/></g>
<g><path style="opacity:1" fill="#0f130b" d="M 436.5,751.5 C 439.935,751.002 442.435,752.669 444,756.5C 444.827,760.541 444.66,764.541 443.5,768.5C 442.257,765.681 440.757,763.014 439,760.5C 438.943,757.149 438.109,754.149 436.5,751.5 Z"/></g>
<g><path style="opacity:1" fill="#161c0d" d="M 466.5,771.5 C 466.672,772.492 466.338,773.158 465.5,773.5C 462.568,770.302 460.734,766.635 460,762.5C 463.166,764.853 465.333,767.853 466.5,771.5 Z"/></g>
<g><path style="opacity:1" fill="#0f120b" d="M 450.5,774.5 C 454.17,775.193 455.17,777.193 453.5,780.5C 450.479,779.227 449.479,777.227 450.5,774.5 Z"/></g>
<g><path style="opacity:0.106" fill="#7ce700" d="M 648.5,982.5 C 649.077,981.227 649.743,981.227 650.5,982.5C 650.03,983.463 649.363,983.463 648.5,982.5 Z"/></g>
<g><path style="opacity:0.89" fill="#3b6611" d="M 451.5,984.5 C 451.5,984.167 451.5,983.833 451.5,983.5C 457.044,983.123 461.044,983.79 463.5,985.5C 459.481,985.354 455.481,985.021 451.5,984.5 Z"/></g>
</svg>
