<?xml version="1.0" encoding="UTF-8"?>
<svg xmlns="http://www.w3.org/2000/svg" xmlns:xlink="http://www.w3.org/1999/xlink" width="100" height="100" viewBox="0 0 3750 3508">
    <path fill-rule="nonzero" fill="rgb(0%, 0%, 0%)" fill-opacity="1" d="M 546.261719 0.988281 C 537.210938 1.089844 528.132812 2.050781 519.128906 4.019531 C 510.125 6 501.246094 9.019531 493.152344 12.910156 C 485.058594 16.789062 471.671875 26.53125 471.671875 26.53125 C 469.535156 28.25 467.46875 30.058594 465.472656 31.941406 C 465.472656 31.941406 -103.910156 558.289062 16.796875 1201.308594 C 51.457031 1385.929688 173.214844 1586.058594 342.46875 1803.390625 C 511.726562 2020.71875 730.984375 2251.320312 968.960938 2471.308594 C 1444.910156 2911.304688 1987.410156 3307.269531 2373.71875 3455.171875 C 2737.230469 3594.351562 3085.128906 3429.152344 3328.058594 3244.640625 C 3570.980469 3060.128906 3727.980469 2844.988281 3727.980469 2844.988281 C 3731.21875 2840.546875 3734.101562 2835.859375 3736.589844 2830.960938 C 3754.191406 2796.570312 3750.550781 2769.847656 3747.289062 2751.570312 C 3744.019531 2733.292969 3738.828125 2720.027344 3733.121094 2707.039062 C 3721.699219 2681.0625 3707.058594 2657.042969 3689.140625 2630.507812 C 3653.289062 2577.429688 3604.03125 2516.398438 3547.070312 2453.308594 C 3433.140625 2327.109375 3295.421875 2195.480469 3164 2127.5 C 3109.859375 2099.488281 3055.070312 2119.839844 3026.320312 2137.300781 C 2997.558594 2154.761719 2977.328125 2174.671875 2956.089844 2197.121094 C 2913.589844 2242 2870.679688 2298.390625 2824.839844 2356.789062 C 2733.171875 2473.578125 2625.328125 2573.359375 2587.078125 2587.203125 C 2593.648438 2584.824219 2517.101562 2601.46875 2457.378906 2579.988281 C 2397.660156 2558.503906 2346.351562 2526.03125 2258.78125 2473.390625 C 2083.640625 2368.109375 1872.320312 2210.320312 1673.71875 2037.308594 C 1475.128906 1864.300781 1288.488281 1675.28125 1161.070312 1510.640625 C 1097.371094 1428.320312 1048.628906 1351.839844 1020.570312 1290.511719 C 992.519531 1229.179688 989.160156 1185.320312 992.28125 1172.101562 C 1034.71875 992.488281 1112.359375 921.878906 1181.539062 850.820312 C 1216.128906 815.28125 1259.109375 779.550781 1273.421875 706.839844 C 1287.738281 634.140625 1249.46875 563.171875 1196.480469 507.269531 C 939.765625 236.480469 790.375 113.789062 693.371094 53.929688 C 644.867188 24 609.121094 8.851562 573.292969 3.109375 C 564.335938 1.671875 555.316406 0.898438 546.261719 0.988281 Z M 546.261719 0.988281 "/>
</svg>
